<?xml version="1.0" encoding="iso-8859-1"?>
<!-- Generator: Adobe Illustrator 19.0.0, SVG Export Plug-In . SVG Version: 6.00 Build 0)  -->
<svg version="1.1" id="Capa_1" xmlns="http://www.w3.org/2000/svg" xmlns:xlink="http://www.w3.org/1999/xlink" x="0px" y="0px"
	 viewBox="0 0 400 400" style="enable-background:new 0 0 400 400;" xml:space="preserve">
<g id="XMLID_35_">
	<path id="XMLID_340_" d="M345,232.729V20h-15c-1.077,0-26.682,0.164-52.284,14.388C253.667,47.748,225,76.048,225,135v59.442
		L117.534,86.976l-10.607,10.606c-1.367,1.367-13.517,13.923-19.138,33.592c-5.407,18.925-5.659,47.679,23.851,77.189L133.278,230
		H75c-41.355,0-75,33.645-75,75s33.645,75,75,75h250c41.355,0,75-33.645,75-75C400,270.571,376.674,241.506,345,232.729z M325,350
		H75c-24.813,0-45-20.187-45-45s20.187-45,45-45h250c24.814,0,45,20.187,45,45S349.814,350,325,350z M291.372,61.127
		c8.302-4.764,16.755-7.49,23.628-9.049V230h-60v-95C255,99.832,267.237,74.978,291.372,61.127z M132.854,187.149
		c-15.116-15.117-20.659-30.862-16.474-46.797c0.846-3.223,2.011-6.188,3.281-8.823L218.132,230h-42.427L132.854,187.149z"/>
	<circle id="XMLID_352_" cx="285" cy="305" r="15"/>
</g>
<g>
</g>
<g>
</g>
<g>
</g>
<g>
</g>
<g>
</g>
<g>
</g>
<g>
</g>
<g>
</g>
<g>
</g>
<g>
</g>
<g>
</g>
<g>
</g>
<g>
</g>
<g>
</g>
<g>
</g>
</svg>
